<svg xmlns="http://www.w3.org/2000/svg" aria-hidden="true" overflow="hidden" style="position:absolute;width:0;height:0">
  <defs>
    <symbol id="icon-arrow" viewBox="0 0 36 32">
      <path d="M1.062 17.414a2 2 0 0 1 0-2.828L13.79 1.858a2 2 0 1 1 2.828 2.828L5.304 16l11.314 11.314a2 2 0 1 1-2.828 2.828L1.062 17.414zM36 18H2.476v-4H36v4z"/>
    </symbol>
    <symbol id="icon-facebook" viewBox="0 0 19 32">
      <path d="M18.09.668a41.312 41.312 0 0 0-4.476-.23c-4.956 0-8.036 3.157-8.036 8.238v3.45H1.415a.738.738 0 0 0-.737.737v5.674a.738.738 0 0 0 .737.737h4.163v11.377a.738.738 0 0 0 .737.737h5.862a.738.738 0 0 0 .737-.737V19.274h4.15a.736.736 0 0 0 .731-.641l.732-5.674a.751.751 0 0 0-.177-.582.743.743 0 0 0-.554-.251h-4.882V9.239c0-1.429.287-2.026 2.075-2.026h3.005a.738.738 0 0 0 .737-.737V1.399a.736.736 0 0 0-.641-.731zm-.832 5.069-2.269.001c-3.179 0-3.547 1.998-3.547 3.5v3.625a.739.739 0 0 0 .735.737h4.784l-.544 4.2h-4.238a.738.738 0 0 0-.737.737v11.374H7.053V18.537a.738.738 0 0 0-.737-.737H2.154v-4.2h4.162a.738.738 0 0 0 .737-.737V8.675c0-4.235 2.454-6.764 6.562-6.764 1.487 0 2.829.081 3.643.152v3.674z"/>
    </symbol>
    <symbol id="icon-instagram" viewBox="0 0 32 32">
      <path d="M16 8.897a7.106 7.106 0 0 0-6.562 4.385 7.109 7.109 0 0 0 1.54 7.741 7.109 7.109 0 0 0 10.929-1.076 7.101 7.101 0 0 0-5.906-11.048zm0 12.353a5.252 5.252 0 0 1-5.15-6.274 5.248 5.248 0 0 1 9.514-1.892c.577.863.885 1.878.885 2.917a5.265 5.265 0 0 1-5.25 5.25zM22.794.868H9.206A8.338 8.338 0 0 0 .868 9.206v13.588a8.338 8.338 0 0 0 8.338 8.338h13.588a8.338 8.338 0 0 0 8.338-8.338V9.206A8.338 8.338 0 0 0 22.794.868zm6.485 21.926a6.488 6.488 0 0 1-6.485 6.485H9.206a6.486 6.486 0 0 1-6.485-6.485V9.206a6.486 6.486 0 0 1 6.485-6.485h13.588a6.488 6.488 0 0 1 6.485 6.485v13.588zM25.574 7.971a1.55 1.55 0 0 1-.953 1.427 1.54 1.54 0 0 1-1.683-.335 1.547 1.547 0 0 1-.335-1.683 1.548 1.548 0 0 1 1.427-.953 1.547 1.547 0 0 1 1.544 1.544z"/>
    </symbol>
    <symbol id="icon-phone" viewBox="0 0 29 32">
      <path d="m26.637 23.305-.182-.227c-1.441-1.821-2.645-2.769-3.678-2.894-.893-.122-1.757.496-2.675 1.131l-.981.613a2.205 2.205 0 0 1-.343.139c-.574.162-2.023.258-2.843-.493-.955-.874-2.436-2.472-3.588-3.87-1.1-1.446-2.31-3.249-2.941-4.385-.533-.962-.087-2.307.211-2.806.059-.098.136-.195.221-.29l.865-.799c.013-.013.018-.028.029-.039.008-.008.022-.006.032-.013.781-.659 1.589-1.338 1.7-2.211.13-1.025-.507-2.411-1.95-4.231l-.176-.227C9.445 1.558 8.094-.174 6.153.112 5.39.225 4.708.486 4.005.927c-.007.004-.011.013-.017.017s-.013.004-.018.008l-.979.725c-.01.006-.015.018-.025.027-.007.007-.018.008-.027.015-.113.095-.227.193-.339.294-.993.885-3.142 3.454-1.676 8.205.946 3.069 2.898 6.65 5.657 10.377l-.027.022 1.522 1.896.013-.01c2.992 3.539 6.037 6.275 8.827 7.931 1.862 1.106 3.489 1.471 4.827 1.471 1.761 0 3.023-.633 3.655-1.044l.398-.266c.045-.031.077-.074.109-.113l.867-.652c.01-.008.015-.02.025-.028.004-.004.011-.003.017-.007.616-.563 1.043-1.152 1.34-1.851.769-1.791-.608-3.506-1.518-4.641zm.489 4.202c-.231.543-.568 1.005-1.056 1.453l-1.289.97c-1.168.759-3.664 1.697-7.29-.456-2.79-1.656-5.862-4.456-8.884-8.098l-.818-1.033c-2.846-3.774-4.848-7.389-5.793-10.452-1.228-3.983.319-6.119 1.355-7.042.105-.095.21-.183.314-.272l.004-.004.939-.696c.571-.361 1.1-.563 1.709-.655 1.301-.196 2.359 1.176 3.136 2.173l.182.231c1.613 2.034 1.768 3.002 1.718 3.396-.056.438-.722 1-1.31 1.494l-.083.07-.007.01-.013.007-.895.827c-.006.006-.008.013-.014.02s-.017.01-.022.017a3.058 3.058 0 0 0-.354.472c-.503.841-.977 2.58-.228 3.926.654 1.176 1.898 3.034 3.042 4.535 1.196 1.45 2.72 3.097 3.709 4 .741.676 1.771.903 2.663.903.477 0 .916-.066 1.247-.16.175-.05.356-.123.542-.214.011-.006.017-.015.028-.022.006-.003.014-.001.02-.006l1.039-.65c.034-.022.056-.052.084-.08l.013.014c.64-.444 1.369-.965 1.826-.889.405.049 1.323.438 2.939 2.478l.186.234c.787.981 1.865 2.325 1.362 3.5z"/>
    </symbol>
    <symbol id="icon-menu" viewBox="0 0 46 32">
      <path d="M45.714 29.726c0 1.257-1.019 2.274-2.274 2.274h-18.309c-1.256 0-2.274-1.018-2.274-2.274s1.018-2.274 2.274-2.274h18.309c1.257 0 2.274 1.017 2.274 2.274zM45.714 16c0 1.257-1.019 2.274-2.274 2.274h-41.166c-1.256 0-2.274-1.018-2.274-2.274s1.018-2.274 2.274-2.274h41.166c1.257 0 2.274 1.019 2.274 2.274zM43.44 4.549c1.256 0 2.274-1.018 2.274-2.274s-1.018-2.274-2.274-2.274v0h-27.451c-1.256 0-2.274 1.018-2.274 2.274s1.018 2.274 2.274 2.274v0h27.451z"></path>
    </symbol>
    <symbol id="icon-close" viewBox="0 0 32 32">
      <path d="M1.427 1.080c-1.388 1.542-0.925 2.313 5.398 8.636l6.092 6.092-6.092 6.092c-6.323 6.323-6.901 7.248-5.436 8.713 1.272 1.311 2.12 0.733 8.443-5.552l6.169-6.169 6.169 6.169c4.935 4.935 6.361 6.169 7.21 6.169 1.041 0 2.236-1.195 2.236-2.275 0-0.308-2.814-3.393-6.246-6.863l-6.246-6.284 6.246-6.284c3.431-3.47 6.246-6.593 6.246-6.94 0-0.925-1.388-2.198-2.39-2.198-0.578 0-2.814 1.966-7.055 6.169l-6.169 6.169-6.169-6.169c-6.361-6.361-7.133-6.863-8.405-5.475z"></path>
    </symbol>
  </defs>
</svg>
