<?xml version="1.0" encoding="utf-8"?>
<!-- Generator: Adobe Illustrator 26.5.0, SVG Export Plug-In . SVG Version: 6.00 Build 0)  -->
<svg version="1.1" id="Слой_1" xmlns="http://www.w3.org/2000/svg" xmlns:xlink="http://www.w3.org/1999/xlink" x="0px" y="0px"
	 viewBox="0 0 56 56" style="enable-background:new 0 0 56 56;" xml:space="preserve">
<style type="text/css">
	.st0{opacity:0;fill:#E4E4E4;}
	.st1{clip-path:url(#SVGID_00000112596686912974917610000007689207888682018203_);}
	.st2{display:none;fill:#FFFFFF;}
	
		.st3{display:none;fill-rule:evenodd;clip-rule:evenodd;fill:url(#SVGID_00000176008974582916700850000017085136486335408779_);fill-opacity:0.2;}
	.st4{fill:#011F4A;}
	.st5{display:none;}
	.st6{display:inline;fill:#D9D9D9;filter:url(#Adobe_OpacityMaskFilter);}
	.st7{display:inline;mask:url(#mask0_30_13827_00000029026303736626069150000008522132869100581014_);}
	.st8{fill:none;}
</style>
<rect class="st0" width="56" height="56"/>
<g>
	<defs>
		<rect id="SVGID_1_" x="-974" y="-1009" width="1440" height="3694"/>
	</defs>
	<clipPath id="SVGID_00000072962759749712991720000015225578751330482362_">
		<use xlink:href="#SVGID_1_"  style="overflow:visible;"/>
	</clipPath>
	<g style="clip-path:url(#SVGID_00000072962759749712991720000015225578751330482362_);">
		<path class="st2" d="M108.7,375.9c-2.5,1.4-5,2.8-7.5,4.3c-3,5.5-6.1,11-9.4,16.3c0,0,0,0,0,0C97.2,389.6,102.9,382.8,108.7,375.9
			z"/>
		<path class="st2" d="M394.2,80.7c-30.1,25.4-60.4,50.6-90,76.6c-15.3,14.7-30.4,29.6-45.3,44.6c-25.3,25.6-49.8,51.8-74.3,78.2
			c-11.4,12.3-22.6,24.7-33.7,37.3c2.7,0.5,5.1,2.6,3.8,5.9c-3.8,9.7-8.8,18.7-14.5,27.3c22.8-8.2,46.5-13.9,70.2-18.1
			c48-8.4,96.8-10.2,145.5-11.5c6.4-0.2,6.4,9.8,0,10c-27,0.7-54.1,1.6-81,3.7c-42.1,3.2-85.1,9.3-125.3,23.1
			c2.1,1.7,2.9,5.2,0.8,7.7c-4.4,5.4-8.7,10.7-13.1,16.1c1.7,1.7,2.2,4.5,0.1,6.9c-5,5.6-10.1,11.3-15.1,16.9
			c-16.3,18.2-32.8,36.4-49.5,54.2c-23.7,27.6-48.2,54.5-74.4,79.9c-4.2,4-10.5-1.1-7.9-6.1C17.4,483.7,54,440.1,83,391.8
			c-19.5,13.3-38,28.2-56.5,42.7c-5,3.9-11.5-2.2-7.1-7.1c14.9-16.1,29.8-32.2,44.8-48.3c-13.7,6.8-26.6,15.2-39.3,23.6
			c-9.7,6.4-19.7,12.2-29.6,18.3c-12.9,8.1-26,15.8-40.1,21.7c-3.8,1.6-6.8-2.9-6.2-6.2c7.8-37.1,39.8-61.9,53.1-96.2
			c-24.4,7.9-46.7,20.7-68.8,33.4c-11.9,6.8-24.1,13.1-36,20c-11.4,6.6-22.9,12.8-36.4,13.1c-6.4,0.1-6.4-9.9,0-10
			c13.5-0.3,24.7-8,36.1-14.4c11.8-6.7,23.9-13.1,35.7-19.8c24.1-13.8,48.7-27.4,75.8-34.5c3.7-1,7.2,2.4,6.2,6.2
			c-9.7,35.7-41.3,60.3-53.1,94.7c13.2-6.5,25.5-14.7,38-22.4c17.1-10.7,34-22,51.6-31.8c8.8-4.9,19.5-10.8,30.4-14.1
			c11.9-12.6,23.9-25.2,36-37.7c57.6-59.7,116.8-117.8,179.1-172.5c14.3-13.9,28.8-27.7,43.4-41.3c24.9-23.2,50.2-46,75.6-68.5
			C432,26.3,448.6,12.1,466-1v-1008H-974v3694H466V19C442.4,39.9,418.4,60.4,394.2,80.7z M-148.7-393.5
			c-7.5,16.3-18.3,30.7-29.8,44.3c-11.5,13.6-23.6,26.8-35.7,40c-48.1,52.6-99.5,102.3-153,149.4c-9.4,8.3-18.9,16.5-28.5,24.6
			c0.9,1.8,0.9,4.1-0.8,5.7c-41.4,38.4-78.2,83.5-128,111.8c-5.1,2.9-9.8-3.7-6.1-7.9c11.1-12.1,22.6-23.7,34.5-35
			c-30.3,20.1-61.2,39.2-93.5,55.9c-5.7,3-10.8-5.7-5-8.6c56.2-29,108.1-65.3,159.8-101.5c50.1-42.9,99.9-86.1,146.9-132.4
			c25.1-24.8,49.9-50,73.3-76.5c19.1-21.6,40.3-42.4,53.9-68.1c-32.3-3.2-64.7-5.7-97.1-7.5c-31.5-1.8-62.8-2.3-94.3-0.4
			c-31,1.8-61.9,5.4-92.6,10c-62.3,9.3-124,22.5-186.1,33.5c-6.3,1.1-9-8.5-2.7-9.6c34.8-6.2,69.4-13,104.2-19.5
			c61.7-11.5,123.9-21.9,186.7-24.9c31.8-1.5,63.5-0.4,95.2,1.5c31.5,1.9,62.9,4.4,94.2,7.7C-149-400.6-147-397.1-148.7-393.5z"/>
		<path class="st2" d="M86.7,370c-6.4,6.8-12.9,13.7-19.3,20.5c4.1-2.9,8.2-5.8,12.3-8.6c4.6-3.1,9.3-6.1,14-8.9
			c0.8-1.6,1.7-3.1,2.5-4.7C93.1,368.4,89.8,369,86.7,370z"/>
		<path class="st2" d="M136.3,362.7c-2.3,0.9-4.5,1.8-6.7,2.8c-2.5,3.3-5.1,6.5-7.6,9.7c4.9-4.6,10.1-9,15.6-12.9
			C137.1,362.4,136.7,362.6,136.3,362.7z"/>
		<path class="st2" d="M97.8,358.3c2.5,0,5.1,0.3,7.5,0.9c-0.1-1.2,0.2-2.5,1.1-3.7c12.6-16,25.7-31.6,39.1-46.9
			C129.5,325,113.6,341.6,97.8,358.3z"/>
		<path class="st2" d="M114.3,361.7c3.1-1.5,6.2-3,9.3-4.4c3.9-5.2,7.7-10.5,11.1-16C127.5,347.7,120.6,354.4,114.3,361.7z"/>
		
			<linearGradient id="SVGID_00000063595888692566898250000011251888113026090909_" gradientUnits="userSpaceOnUse" x1="-269.5955" y1="-234" x2="-269.5955" y2="-1454.5" gradientTransform="matrix(1 0 0 -1 0 58)">
			<stop  offset="0.3347" style="stop-color:#2B7FFF"/>
			<stop  offset="0.6346" style="stop-color:#2B7FFF;stop-opacity:0"/>
			<stop  offset="0.8947" style="stop-color:#2B7FFF;stop-opacity:0"/>
		</linearGradient>
		
			<path style="display:none;fill-rule:evenodd;clip-rule:evenodd;fill:url(#SVGID_00000063595888692566898250000011251888113026090909_);fill-opacity:0.2;" d="
			M41.2,1652.7c-171.2,82.7-333.5,184.5-522.8,166.8c-197.5-18.5-372.1-119.1-508.1-263.4c-155-164.4-297.9-357.9-290.6-583.7
			c7.9-244.8,112.5-511.8,329.5-625.4c204-106.8,425.8,91.6,655.4,109.7c259.5,20.5,546.3-159.4,751.2,1.1
			c225.3,176.5,347.7,515.6,253.8,786C620.6,1500.3,285.7,1534.5,41.2,1652.7z"/>
		<path class="st4" d="M11.7,0l18.7,17.8l25.1-6.1L37.6,30.4l6.1,25.1L25.1,37.6L0,43.7l17.8-18.7L11.7,0z"/>
		<g class="st5">
			<defs>
				<filter id="Adobe_OpacityMaskFilter" filterUnits="userSpaceOnUse" x="31" y="15" width="343" height="328">
					<feColorMatrix  type="matrix" values="1 0 0 0 0  0 1 0 0 0  0 0 1 0 0  0 0 0 1 0"/>
				</filter>
			</defs>
			
				<mask maskUnits="userSpaceOnUse" x="31" y="15" width="343" height="328" id="mask0_30_13827_00000029026303736626069150000008522132869100581014_" style="display:inline;">
				<ellipse style="fill:#D9D9D9;filter:url(#Adobe_OpacityMaskFilter);" cx="202.5" cy="179" rx="163.5" ry="164"/>
			</mask>
			<g class="st7">
				<rect x="31" y="15" class="st8" width="343" height="328"/>
			</g>
		</g>
	</g>
</g>
</svg>
